{
  "accessors": [
    {
      "bufferView": 2,
      "componentType": 5126,
      "count": 401,
      "max": [
        9.6842288970947266,
        2.300987720489502,
        9.6842288970947266
      ],
      "min": [
        -9.6842288970947266,
        -0.37904366850852966,
        -9.6842288970947266
      ],
      "type": "VEC3"
    },
    {
      "bufferView": 2,
      "byteOffset": 4812,
      "componentType": 5126,
      "count": 401,
      "max": [
        1,
        1,
        1
      ],
      "min": [
        -1,
        -9.6630585477708308e-11,
        -1
      ],
      "type": "VEC3"
    },
    {
      "bufferView": 1,
      "componentType": 5126,
      "count": 401,
      "max": [
        0.97957092523574829,
        0.97957098484039307
      ],
      "min": [
        0.02042900025844574,
        0.020429134368896484
      ],
      "type": "VEC2"
    },
    {
      "bufferView": 1,
      "byteOffset": 3208,
      "componentType": 5126,
      "count": 401,
      "max": [
        0.97957092523574829,
        0.97957098484039307
      ],
      "min": [
        0.02042900025844574,
        0.020429134368896484
      ],
      "type": "VEC2"
    },
    {
      "bufferView": 0,
      "componentType": 5125,
      "count": 2304,
      "max": [
        400
      ],
      "min": [
        0
      ],
      "type": "SCALAR"
    },
    {
      "bufferView": 2,
      "byteOffset": 9624,
      "componentType": 5126,
      "count": 898,
      "max": [
        23.095245361328125,
        24.878734588623047,
        23.095245361328125
      ],
      "min": [
        -23.095245361328125,
        -23.809700012207031,
        -23.095245361328125
      ],
      "type": "VEC3"
    },
    {
      "bufferView": 2,
      "byteOffset": 20400,
      "componentType": 5126,
      "count": 898,
      "max": [
        1,
        1,
        1
      ],
      "min": [
        -1,
        -1,
        -1
      ],
      "type": "VEC3"
    },
    {
      "bufferView": 3,
      "componentType": 5126,
      "count": 898,
      "max": [
        0.75154101848602295,
        0.99981778860092163,
        0.077934131026268005,
        1
      ],
      "min": [
        -0.77584546804428101,
        -0.99969494342803955,
        -0.93992602825164795,
        1
      ],
      "type": "VEC4"
    },
    {
      "bufferView": 1,
      "byteOffset": 6416,
      "componentType": 5126,
      "count": 898,
      "max": [
        0.99597442150115967,
        0.99501270055770874
      ],
      "min": [
        0.0032194196246564388,
        0.0045899152755737305
      ],
      "type": "VEC2"
    },
    {
      "bufferView": 1,
      "byteOffset": 13600,
      "componentType": 5126,
      "count": 898,
      "max": [
        0.99597442150115967,
        0.99501270055770874
      ],
      "min": [
        0.0032194196246564388,
        0.0045899152755737305
      ],
      "type": "VEC2"
    },
    {
      "bufferView": 0,
      "byteOffset": 9216,
      "componentType": 5125,
      "count": 5184,
      "max": [
        897
      ],
      "min": [
        0
      ],
      "type": "SCALAR"
    }
  ],
  "asset": {
    "extras": {
      "author": "schteppn (https://sketchfab.com/schteppn)",
      "license": "CC-BY-4.0 (http://creativecommons.org/licenses/by/4.0/)",
      "source": "https://sketchfab.com/3d-models/eye-for-free-740d560f95e748fdb54bc2a77e6f4ad7",
      "title": "eye for free"
    },
    "generator": "Sketchfab-9.80.0",
    "version": "2.0"
  },
  "bufferViews": [
    {
      "buffer": 0,
      "byteLength": 29952,
      "byteOffset": 0,
      "name": "floatBufferViews",
      "target": 34963
    },
    {
      "buffer": 0,
      "byteLength": 20784,
      "byteOffset": 29952,
      "byteStride": 8,
      "name": "floatBufferViews",
      "target": 34962
    },
    {
      "buffer": 0,
      "byteLength": 31176,
      "byteOffset": 50736,
      "byteStride": 12,
      "name": "floatBufferViews",
      "target": 34962
    },
    {
      "buffer": 0,
      "byteLength": 14368,
      "byteOffset": 81912,
      "byteStride": 16,
      "name": "floatBufferViews",
      "target": 34962
    }
  ],
  "buffers": [
    {
      "byteLength": 96280,
      "uri": "scene.bin"
    }
  ],
  "images": [
    {
      "uri": "textures/PBR.1_baseColor.png"
    },
    {
      "uri": "textures/PBR.2_baseColor.png"
    },
    {
      "uri": "textures/PBR.2_normal.png"
    }
  ],
  "materials": [
    {
      "doubleSided": true,
      "emissiveFactor": [
        0,
        0,
        0
      ],
      "name": "PBR.1",
      "pbrMetallicRoughness": {
        "baseColorFactor": [
          1,
          1,
          1,
          1
        ],
        "baseColorTexture": {
          "index": 0,
          "texCoord": 0
        },
        "metallicFactor": 0,
        "roughnessFactor": 1
      }
    },
    {
      "alphaMode": "BLEND",
      "doubleSided": true,
      "emissiveFactor": [
        0,
        0,
        0
      ],
      "name": "PBR.2",
      "normalTexture": {
        "index": 2,
        "scale": 1,
        "texCoord": 0
      },
      "pbrMetallicRoughness": {
        "baseColorFactor": [
          1,
          1,
          1,
          1
        ],
        "baseColorTexture": {
          "index": 1,
          "texCoord": 0
        },
        "metallicFactor": 0,
        "roughnessFactor": 0.050351434008840575
      }
    }
  ],
  "meshes": [
    {
      "name": "Scheibe_PBR.1_0",
      "primitives": [
        {
          "attributes": {
            "NORMAL": 1,
            "POSITION": 0,
            "TEXCOORD_0": 2,
            "TEXCOORD_1": 3
          },
          "indices": 4,
          "material": 0,
          "mode": 4
        }
      ]
    },
    {
      "name": "Kugel_PBR.2_0",
      "primitives": [
        {
          "attributes": {
            "NORMAL": 6,
            "POSITION": 5,
            "TANGENT": 7,
            "TEXCOORD_0": 8,
            "TEXCOORD_1": 9
          },
          "indices": 10,
          "material": 1,
          "mode": 4
        }
      ]
    }
  ],
  "nodes": [
    {
      "children": [
        1
      ],
      "name": "RootNode (gltf orientation matrix)",
      "rotation": [
        -0.70710678118654746,
        -0,
        -0,
        0.70710678118654757
      ]
    },
    {
      "children": [
        2
      ],
      "name": "RootNode (model correction matrix)"
    },
    {
      "children": [
        3
      ],
      "matrix": [
        1,
        0,
        0,
        0,
        0,
        0,
        1,
        0,
        0,
        -1,
        0,
        0,
        0,
        0,
        0,
        1
      ],
      "name": "ef55400e1f2a4bb280aeaa16e03fdb30.fbx"
    },
    {
      "children": [
        4,
        6
      ],
      "name": "RootNode"
    },
    {
      "children": [
        5
      ],
      "matrix": [
        1,
        0,
        0,
        0,
        0,
        2.2204460492503131e-16,
        1,
        0,
        0,
        -1,
        2.2204460492503131e-16,
        0,
        0,
        8.7207335875750559e-17,
        20.203273773193359,
        1
      ],
      "name": "Scheibe"
    },
    {
      "mesh": 0,
      "name": "Scheibe_PBR.1_0"
    },
    {
      "children": [
        7
      ],
      "matrix": [
        1,
        0,
        0,
        0,
        0,
        2.2204460492503131e-16,
        1,
        0,
        0,
        -1,
        2.2204460492503131e-16,
        0,
        0,
        0,
        0,
        1
      ],
      "name": "Kugel"
    },
    {
      "mesh": 1,
      "name": "Kugel_PBR.2_0"
    }
  ],
  "samplers": [
    {
      "magFilter": 9729,
      "minFilter": 9987,
      "wrapS": 10497,
      "wrapT": 10497
    },
    {
      "magFilter": 9729,
      "minFilter": 9987,
      "wrapS": 33071,
      "wrapT": 33071
    }
  ],
  "scene": 0,
  "scenes": [
    {
      "name": "OSG_Scene",
      "nodes": [
        0
      ]
    }
  ],
  "textures": [
    {
      "sampler": 0,
      "source": 0
    },
    {
      "sampler": 1,
      "source": 1
    },
    {
      "sampler": 0,
      "source": 2
    }
  ]
}

